<svg viewBox="0 0 576 512" xmlns="http://www.w3.org/2000/svg"><path d="M297.1 224 448 277.5V496c0 8.9-7.1 16-16 16h-64c-8.875 0-16-7.125-16-15.1V385.8H192v111.1c0 8-7.1 15.1-16 15.1h-64c-8.9 0-16-7.1-16-16V282.1c-37.12-13.2-64-48.5-64-90.1 0-17.62 14.38-31.1 32-31.1s32 14.37 32 31.1 14.38 31.1 32 31.1h169.1zM544 112v31.1c0 35.37-28.62 63.1-64 63.1h-32v35.62l-128-45.75V48c0-14.25 17.25-21.37 27.25-11.25L374.63 64h53.63c10.88 0 23.75 7.874 28.62 17.75L464 96h64c8.9 0 16 7.1 16 16zm-112 0c0-8.875-7.125-15.1-16-15.1s-16 7.124-16 15.1 7.125 15.1 16 15.1 16-6.2 16-15.1z" fill="#0065fc" class="fill-000000"></path></svg>