<svg xmlns="http://www.w3.org/2000/svg" viewBox="0 0 150 150"><path d="M12.67 28.94c20.77 5.67 41.55.38 62.33-4.92 22.66-5.77 45.31-11.55 67.97-3.09 4.4 1.64 7.03 6.05 7.03 10.75v80.69c0 6.22-6.67 10.34-12.68 8.7-20.76-5.68-41.54-.39-62.32 4.9-22.89 5.78-45.55 11.56-67.98 3.1-4.4-1.64-7.02-6.04-7.02-10.76V37.63c0-6.23 6.67-10.33 12.67-8.69ZM74.76 100c11.74 0 21.07-11.2 21.07-25.23s-9.32-25-21.07-25-20.83 11.2-20.83 25S63.49 100 74.76 100Zm-58.33 16.67H33.1c0-9.19-7.23-16.67-16.67-16.67v16.67Zm0-71.07v16.67c9.44 0 16.67-7.24 16.67-16.67H16.43Zm116.9 41.67c-9.19 0-16.67 7.71-16.67 16.9h16.67v-16.9ZM116.66 33.1c0 9.43 7.47 16.67 16.67 16.67V33.1h-16.67Z" style="fill:#005eb8"/></svg>